<svg width="106" height="32" viewBox="0 0 106 32" fill="none" xmlns="http://www.w3.org/2000/svg">
<rect width="106" height="32" rx="4" fill="#F1F3F5"/>
<path d="M11.118 21V11.926H16.786V13.226H12.587V15.748H16.318V17.048H12.587V21H11.118ZM19.1431 13.031C18.8484 13.031 18.6317 12.9617 18.4931 12.823C18.3631 12.6843 18.2981 12.5067 18.2981 12.29V12.069C18.2981 11.8523 18.3631 11.6747 18.4931 11.536C18.6317 11.3973 18.8484 11.328 19.1431 11.328C19.4377 11.328 19.6501 11.3973 19.7801 11.536C19.9101 11.6747 19.9751 11.8523 19.9751 12.069V12.29C19.9751 12.5067 19.9101 12.6843 19.7801 12.823C19.6501 12.9617 19.4377 13.031 19.1431 13.031ZM18.4281 14.24H19.8451V21H18.4281V14.24ZM23.3115 21C22.8262 21 22.4622 20.8787 22.2195 20.636C21.9855 20.3847 21.8685 20.038 21.8685 19.596V11.38H23.2855V19.843H24.2215V21H23.3115ZM27.384 21C26.89 21 26.5174 20.8743 26.266 20.623C26.0147 20.363 25.889 19.999 25.889 19.531V15.397H24.836V14.24H25.408C25.642 14.24 25.8024 14.188 25.889 14.084C25.9844 13.98 26.032 13.811 26.032 13.577V12.394H27.306V14.24H28.723V15.397H27.306V19.843H28.619V21H27.384ZM32.8613 21.156C32.376 21.156 31.9426 21.0737 31.5613 20.909C31.18 20.7443 30.855 20.5103 30.5863 20.207C30.3176 19.895 30.1096 19.5223 29.9623 19.089C29.8236 18.647 29.7543 18.1573 29.7543 17.62C29.7543 17.0827 29.8236 16.5973 29.9623 16.164C30.1096 15.722 30.3176 15.3493 30.5863 15.046C30.855 14.734 31.18 14.4957 31.5613 14.331C31.9426 14.1663 32.376 14.084 32.8613 14.084C33.3553 14.084 33.7886 14.1707 34.1613 14.344C34.5426 14.5173 34.859 14.76 35.1103 15.072C35.3616 15.3753 35.548 15.7307 35.6693 16.138C35.7993 16.5453 35.8643 16.983 35.8643 17.451V17.984H31.2233V18.205C31.2233 18.725 31.375 19.154 31.6783 19.492C31.9903 19.8213 32.4323 19.986 33.0043 19.986C33.4203 19.986 33.7713 19.895 34.0573 19.713C34.3433 19.531 34.586 19.284 34.7853 18.972L35.6173 19.791C35.366 20.207 35.002 20.5407 34.5253 20.792C34.0486 21.0347 33.494 21.156 32.8613 21.156ZM32.8613 15.189C32.6186 15.189 32.3933 15.2323 32.1853 15.319C31.986 15.4057 31.8126 15.527 31.6653 15.683C31.5266 15.839 31.4183 16.0253 31.3403 16.242C31.2623 16.4587 31.2233 16.697 31.2233 16.957V17.048H34.3693V16.918C34.3693 16.398 34.235 15.982 33.9663 15.67C33.6976 15.3493 33.3293 15.189 32.8613 15.189ZM37.4329 21V14.24H38.8499V15.54H38.9149C39.0103 15.1933 39.2096 14.89 39.5129 14.63C39.8163 14.37 40.2366 14.24 40.7739 14.24H41.1509V15.605H40.5919C40.0286 15.605 39.5953 15.696 39.2919 15.878C38.9973 16.06 38.8499 16.3287 38.8499 16.684V21H37.4329ZM43.4105 21.156C43.0898 21.156 42.8515 21.0737 42.6955 20.909C42.5395 20.7357 42.4615 20.5233 42.4615 20.272V20.077C42.4615 19.8257 42.5395 19.6177 42.6955 19.453C42.8515 19.2797 43.0898 19.193 43.4105 19.193C43.7312 19.193 43.9695 19.2797 44.1255 19.453C44.2815 19.6177 44.3595 19.8257 44.3595 20.077V20.272C44.3595 20.5233 44.2815 20.7357 44.1255 20.909C43.9695 21.0737 43.7312 21.156 43.4105 21.156ZM43.4105 16.047C43.0898 16.047 42.8515 15.9647 42.6955 15.8C42.5395 15.6267 42.4615 15.4143 42.4615 15.163V14.968C42.4615 14.7167 42.5395 14.5087 42.6955 14.344C42.8515 14.1707 43.0898 14.084 43.4105 14.084C43.7312 14.084 43.9695 14.1707 44.1255 14.344C44.2815 14.5087 44.3595 14.7167 44.3595 14.968V15.163C44.3595 15.4143 44.2815 15.6267 44.1255 15.8C43.9695 15.9647 43.7312 16.047 43.4105 16.047ZM55.2782 21L54.4592 18.543H51.0662L50.2732 21H48.7782L51.8722 11.926H53.7182L56.8122 21H55.2782ZM52.7952 13.278H52.7302L51.4172 17.282H54.0952L52.7952 13.278ZM59.5566 21C59.0713 21 58.7073 20.8787 58.4646 20.636C58.2306 20.3847 58.1136 20.038 58.1136 19.596V11.38H59.5306V19.843H60.4666V21H59.5566ZM63.1875 21C62.7021 21 62.3381 20.8787 62.0955 20.636C61.8615 20.3847 61.7445 20.038 61.7445 19.596V11.38H63.1615V19.843H64.0975V21H63.1875Z" fill="#212529"/>
<path d="M81.8333 14.3333L86 18.5L90.1667 14.3333H81.8333Z" fill="#212529"/>
</svg>
