<svg width="71" height="13" viewBox="0 0 71 13" fill="none" xmlns="http://www.w3.org/2000/svg">
<path d="M0.0780001 11V1.228H4.698C5.15533 1.228 5.566 1.30733 5.93 1.466C6.294 1.61533 6.602 1.82533 6.854 2.096C7.11533 2.36667 7.316 2.698 7.456 3.09C7.596 3.47267 7.666 3.89267 7.666 4.35C7.666 4.81667 7.596 5.24133 7.456 5.624C7.316 6.00667 7.11533 6.33333 6.854 6.604C6.602 6.87467 6.294 7.08933 5.93 7.248C5.566 7.39733 5.15533 7.472 4.698 7.472H2.206V11H0.0780001ZM2.206 5.624H4.446C4.76333 5.624 5.01067 5.54467 5.188 5.386C5.37467 5.218 5.468 4.97533 5.468 4.658V4.042C5.468 3.72467 5.37467 3.48667 5.188 3.328C5.01067 3.16 4.76333 3.076 4.446 3.076H2.206V5.624ZM12.0021 11.168C11.4607 11.168 10.9754 11.0793 10.5461 10.902C10.1261 10.7247 9.76673 10.468 9.46806 10.132C9.17873 9.796 8.95473 9.39 8.79606 8.914C8.6374 8.438 8.55806 7.906 8.55806 7.318C8.55806 6.73 8.6374 6.198 8.79606 5.722C8.95473 5.246 9.17873 4.84467 9.46806 4.518C9.76673 4.182 10.1261 3.92533 10.5461 3.748C10.9754 3.57067 11.4607 3.482 12.0021 3.482C12.5434 3.482 13.0241 3.57067 13.4441 3.748C13.8734 3.92533 14.2327 4.182 14.5221 4.518C14.8207 4.84467 15.0494 5.246 15.2081 5.722C15.3667 6.198 15.4461 6.73 15.4461 7.318C15.4461 7.906 15.3667 8.438 15.2081 8.914C15.0494 9.39 14.8207 9.796 14.5221 10.132C14.2327 10.468 13.8734 10.7247 13.4441 10.902C13.0241 11.0793 12.5434 11.168 12.0021 11.168ZM12.0021 9.53C12.4127 9.53 12.7301 9.404 12.9541 9.152C13.1781 8.9 13.2901 8.54067 13.2901 8.074V6.576C13.2901 6.10933 13.1781 5.75 12.9541 5.498C12.7301 5.246 12.4127 5.12 12.0021 5.12C11.5914 5.12 11.2741 5.246 11.0501 5.498C10.8261 5.75 10.7141 6.10933 10.7141 6.576V8.074C10.7141 8.54067 10.8261 8.9 11.0501 9.152C11.2741 9.404 11.5914 9.53 12.0021 9.53ZM19.5544 11.168C18.8451 11.168 18.2477 11.056 17.7624 10.832C17.2771 10.5987 16.8431 10.272 16.4604 9.852L17.6784 8.62C17.9397 8.90933 18.2291 9.138 18.5464 9.306C18.8637 9.474 19.2231 9.558 19.6244 9.558C20.0351 9.558 20.3197 9.49733 20.4784 9.376C20.6371 9.24533 20.7164 9.07267 20.7164 8.858C20.7164 8.51267 20.4691 8.30733 19.9744 8.242L19.1764 8.144C17.5244 7.93867 16.6984 7.18267 16.6984 5.876C16.6984 5.52133 16.7637 5.19933 16.8944 4.91C17.0344 4.61133 17.2257 4.35933 17.4684 4.154C17.7204 3.93933 18.0191 3.776 18.3644 3.664C18.7191 3.54267 19.1157 3.482 19.5544 3.482C19.9371 3.482 20.2731 3.51 20.5624 3.566C20.8611 3.61267 21.1224 3.68733 21.3464 3.79C21.5797 3.88333 21.7897 4.00467 21.9764 4.154C22.1724 4.294 22.3637 4.45267 22.5504 4.63L21.3604 5.848C21.1271 5.61467 20.8611 5.43267 20.5624 5.302C20.2731 5.162 19.9744 5.092 19.6664 5.092C19.3117 5.092 19.0597 5.148 18.9104 5.26C18.7611 5.372 18.6864 5.52133 18.6864 5.708C18.6864 5.904 18.7377 6.058 18.8404 6.17C18.9524 6.27267 19.1577 6.34733 19.4564 6.394L20.2824 6.506C21.8971 6.72067 22.7044 7.458 22.7044 8.718C22.7044 9.07267 22.6297 9.39933 22.4804 9.698C22.3311 9.99667 22.1164 10.258 21.8364 10.482C21.5657 10.6967 21.2344 10.8647 20.8424 10.986C20.4597 11.1073 20.0304 11.168 19.5544 11.168ZM26.7237 11C26.0051 11 25.4591 10.818 25.0857 10.454C24.7217 10.09 24.5397 9.558 24.5397 8.858V5.26H23.5037V3.65H24.0217C24.3017 3.65 24.4931 3.58467 24.5957 3.454C24.6984 3.314 24.7497 3.118 24.7497 2.866V1.662H26.6117V3.65H28.0677V5.26H26.6117V9.39H27.9557V11H26.7237ZM32.1391 11.168C31.4298 11.168 30.8324 11.056 30.3471 10.832C29.8618 10.5987 29.4278 10.272 29.0451 9.852L30.2631 8.62C30.5244 8.90933 30.8138 9.138 31.1311 9.306C31.4484 9.474 31.8078 9.558 32.2091 9.558C32.6198 9.558 32.9044 9.49733 33.0631 9.376C33.2218 9.24533 33.3011 9.07267 33.3011 8.858C33.3011 8.51267 33.0538 8.30733 32.5591 8.242L31.7611 8.144C30.1091 7.93867 29.2831 7.18267 29.2831 5.876C29.2831 5.52133 29.3484 5.19933 29.4791 4.91C29.6191 4.61133 29.8104 4.35933 30.0531 4.154C30.3051 3.93933 30.6038 3.776 30.9491 3.664C31.3038 3.54267 31.7004 3.482 32.1391 3.482C32.5218 3.482 32.8578 3.51 33.1471 3.566C33.4458 3.61267 33.7071 3.68733 33.9311 3.79C34.1644 3.88333 34.3744 4.00467 34.5611 4.154C34.7571 4.294 34.9484 4.45267 35.1351 4.63L33.9451 5.848C33.7118 5.61467 33.4458 5.43267 33.1471 5.302C32.8578 5.162 32.5591 5.092 32.2511 5.092C31.8964 5.092 31.6444 5.148 31.4951 5.26C31.3458 5.372 31.2711 5.52133 31.2711 5.708C31.2711 5.904 31.3224 6.058 31.4251 6.17C31.5371 6.27267 31.7424 6.34733 32.0411 6.394L32.8671 6.506C34.4818 6.72067 35.2891 7.458 35.2891 8.718C35.2891 9.07267 35.2144 9.39933 35.0651 9.698C34.9158 9.99667 34.7011 10.258 34.4211 10.482C34.1504 10.6967 33.8191 10.8647 33.4271 10.986C33.0444 11.1073 32.6151 11.168 32.1391 11.168ZM36.3938 6.632C36.3938 5.96 36.4544 5.31133 36.5758 4.686C36.7064 4.06067 36.8791 3.482 37.0938 2.95C37.3084 2.40867 37.5651 1.91867 37.8638 1.48C38.1624 1.04133 38.4891 0.667999 38.8438 0.359999H40.7898C40.0338 1.06 39.4364 1.90467 38.9978 2.894C38.5684 3.874 38.3538 4.96133 38.3538 6.156V7.136C38.3538 8.37733 38.5731 9.48333 39.0118 10.454C39.4504 11.4247 40.0431 12.2507 40.7898 12.932H38.8298C38.4938 12.6427 38.1764 12.2787 37.8778 11.84C37.5791 11.4013 37.3178 10.9113 37.0938 10.37C36.8791 9.81933 36.7064 9.23133 36.5758 8.606C36.4544 7.97133 36.3938 7.31333 36.3938 6.632ZM44.4143 5.092C44.9369 5.092 45.3149 4.994 45.5483 4.798C45.7909 4.59267 45.9123 4.34067 45.9123 4.042V3.944C45.9123 3.58933 45.7956 3.30467 45.5623 3.09C45.3383 2.87533 45.0163 2.768 44.5963 2.768C44.2043 2.768 43.8356 2.87067 43.4903 3.076C43.1449 3.272 42.8509 3.55667 42.6083 3.93L41.2923 2.698C41.4789 2.45533 41.6796 2.236 41.8943 2.04C42.1089 1.83467 42.3516 1.662 42.6223 1.522C42.8929 1.37267 43.1963 1.26067 43.5323 1.186C43.8683 1.102 44.2463 1.06 44.6663 1.06C45.1889 1.06 45.6603 1.12067 46.0803 1.242C46.5096 1.36333 46.8736 1.54067 47.1723 1.774C47.4803 1.998 47.7136 2.26867 47.8723 2.586C48.0403 2.90333 48.1243 3.258 48.1243 3.65C48.1243 3.958 48.0729 4.238 47.9703 4.49C47.8769 4.742 47.7416 4.96133 47.5643 5.148C47.3963 5.33467 47.2003 5.48867 46.9763 5.61C46.7523 5.722 46.5143 5.80133 46.2623 5.848V5.932C46.5516 5.988 46.8176 6.08133 47.0603 6.212C47.3123 6.33333 47.5269 6.492 47.7043 6.688C47.8909 6.884 48.0356 7.11733 48.1383 7.388C48.2409 7.64933 48.2923 7.948 48.2923 8.284C48.2923 8.72267 48.2036 9.11933 48.0263 9.474C47.8489 9.82867 47.5969 10.132 47.2703 10.384C46.9436 10.636 46.5516 10.832 46.0943 10.972C45.6369 11.1027 45.1329 11.168 44.5823 11.168C44.0876 11.168 43.6489 11.1167 43.2663 11.014C42.8836 10.9113 42.5476 10.776 42.2583 10.608C41.9783 10.4307 41.7309 10.23 41.5163 10.006C41.3109 9.782 41.1289 9.544 40.9703 9.292L42.5243 8.088C42.7389 8.48933 43.0003 8.82067 43.3083 9.082C43.6256 9.334 44.0503 9.46 44.5823 9.46C45.0583 9.46 45.4269 9.34333 45.6883 9.11C45.9589 8.86733 46.0943 8.54067 46.0943 8.13V8.046C46.0943 7.64467 45.9403 7.346 45.6323 7.15C45.3336 6.94467 44.9183 6.842 44.3863 6.842H43.5043V5.092H44.4143ZM53.5368 11.168C52.9581 11.168 52.4401 11.0793 51.9828 10.902C51.5254 10.7153 51.1381 10.454 50.8208 10.118C50.5128 9.77267 50.2748 9.362 50.1068 8.886C49.9481 8.41 49.8688 7.878 49.8688 7.29C49.8688 6.60867 49.9714 5.96467 50.1768 5.358C50.3914 4.742 50.6621 4.17733 50.9888 3.664C51.3248 3.14133 51.6981 2.67467 52.1088 2.264C52.5288 1.85333 52.9488 1.508 53.3688 1.228H56.2668C55.6694 1.65733 55.1328 2.068 54.6568 2.46C54.1808 2.84267 53.7654 3.23 53.4108 3.622C53.0654 4.014 52.7761 4.41533 52.5428 4.826C52.3188 5.22733 52.1601 5.66133 52.0668 6.128L52.1928 6.17C52.2768 5.98333 52.3748 5.80133 52.4868 5.624C52.6081 5.44667 52.7528 5.29267 52.9208 5.162C53.0981 5.022 53.3034 4.91 53.5368 4.826C53.7701 4.742 54.0408 4.7 54.3488 4.7C54.7501 4.7 55.1234 4.77467 55.4688 4.924C55.8234 5.064 56.1268 5.26467 56.3788 5.526C56.6401 5.78733 56.8408 6.10933 56.9808 6.492C57.1301 6.86533 57.2048 7.28067 57.2048 7.738C57.2048 8.242 57.1161 8.704 56.9388 9.124C56.7708 9.544 56.5234 9.908 56.1968 10.216C55.8794 10.5147 55.4968 10.748 55.0488 10.916C54.6008 11.084 54.0968 11.168 53.5368 11.168ZM53.5368 9.53C54.0034 9.53 54.3674 9.404 54.6288 9.152C54.8901 8.89067 55.0208 8.522 55.0208 8.046V7.794C55.0208 7.318 54.8901 6.954 54.6288 6.702C54.3674 6.44067 54.0034 6.31 53.5368 6.31C53.0701 6.31 52.7061 6.44067 52.4448 6.702C52.1834 6.954 52.0528 7.318 52.0528 7.794V8.046C52.0528 8.522 52.1834 8.89067 52.4448 9.152C52.7061 9.404 53.0701 9.53 53.5368 9.53ZM62.0153 11.168C61.4366 11.168 60.9186 11.098 60.4613 10.958C60.0133 10.8087 59.6353 10.608 59.3273 10.356C59.0193 10.104 58.7813 9.80533 58.6133 9.46C58.4546 9.11467 58.3753 8.73667 58.3753 8.326C58.3753 7.70067 58.548 7.192 58.8933 6.8C59.2386 6.39867 59.7053 6.11867 60.2933 5.96V5.848C59.8173 5.67067 59.4253 5.4 59.1173 5.036C58.8186 4.672 58.6693 4.20533 58.6693 3.636C58.6693 3.26267 58.7393 2.91733 58.8793 2.6C59.0286 2.28267 59.2433 2.012 59.5233 1.788C59.8126 1.55467 60.1626 1.37733 60.5733 1.256C60.9933 1.12533 61.474 1.06 62.0153 1.06C62.5566 1.06 63.0326 1.12533 63.4433 1.256C63.8633 1.37733 64.2133 1.55467 64.4933 1.788C64.7826 2.012 64.9973 2.28267 65.1373 2.6C65.2866 2.91733 65.3613 3.26267 65.3613 3.636C65.3613 4.20533 65.2073 4.672 64.8993 5.036C64.6006 5.4 64.2133 5.67067 63.7373 5.848V5.96C64.3253 6.11867 64.792 6.39867 65.1373 6.8C65.4826 7.192 65.6553 7.70067 65.6553 8.326C65.6553 8.73667 65.5713 9.11467 65.4033 9.46C65.2446 9.80533 65.0113 10.104 64.7033 10.356C64.3953 10.608 64.0126 10.8087 63.5553 10.958C63.1073 11.098 62.594 11.168 62.0153 11.168ZM62.0153 9.558C62.482 9.558 62.8366 9.45067 63.0793 9.236C63.3313 9.012 63.4573 8.704 63.4573 8.312V8.032C63.4573 7.64 63.3313 7.33667 63.0793 7.122C62.8366 6.898 62.482 6.786 62.0153 6.786C61.5486 6.786 61.1893 6.898 60.9373 7.122C60.6946 7.33667 60.5733 7.64 60.5733 8.032V8.312C60.5733 8.704 60.6946 9.012 60.9373 9.236C61.1893 9.45067 61.5486 9.558 62.0153 9.558ZM62.0153 5.246C62.4633 5.246 62.804 5.14333 63.0373 4.938C63.2706 4.72333 63.3873 4.434 63.3873 4.07V3.846C63.3873 3.482 63.2706 3.19733 63.0373 2.992C62.804 2.77733 62.4633 2.67 62.0153 2.67C61.5673 2.67 61.2266 2.77733 60.9933 2.992C60.76 3.19733 60.6433 3.482 60.6433 3.846V4.07C60.6433 4.434 60.76 4.72333 60.9933 4.938C61.2266 5.14333 61.5673 5.246 62.0153 5.246ZM70.5638 6.632C70.5638 7.31333 70.4985 7.97133 70.3678 8.606C70.2465 9.23133 70.0738 9.81933 69.8498 10.37C69.6352 10.9113 69.3785 11.4013 69.0798 11.84C68.7812 12.2787 68.4638 12.6427 68.1278 12.932H66.1678C66.9145 12.2507 67.5072 11.4247 67.9458 10.454C68.3845 9.48333 68.6038 8.37733 68.6038 7.136V6.156C68.6038 4.96133 68.3845 3.874 67.9458 2.894C67.5165 1.90467 66.9238 1.06 66.1678 0.359999H68.1138C68.4685 0.667999 68.7952 1.04133 69.0938 1.48C69.3925 1.91867 69.6492 2.40867 69.8638 2.95C70.0785 3.482 70.2465 4.06067 70.3678 4.686C70.4985 5.31133 70.5638 5.96 70.5638 6.632Z" fill="#212529"/>
</svg>
